<svg width="25" height="25" viewBox="0 0 25 25" fill="none" xmlns="http://www.w3.org/2000/svg">
<path d="M5 21.9167L5.34722 25L7.59722 22.8611L11.4444 12.3056C10.5 12.0694 9.66667 11.5972 8.98611 10.9444L5 21.9167ZM16.6806 10.9444C16 11.5972 15.1528 12.0694 14.2222 12.3056L18.0694 22.8611L20.3194 25L20.6806 21.9167L16.6806 10.9444V10.9444ZM17 6.94444C17 5.13889 15.8333 3.61111 14.2222 3.02778V0H11.4444V3.02778C9.83333 3.61111 8.66667 5.13889 8.66667 6.94444C8.66667 9.25 10.5278 11.1111 12.8333 11.1111C15.1389 11.1111 17 9.25 17 6.94444ZM12.8333 8.33333C12.0694 8.33333 11.4444 7.70833 11.4444 6.94444C11.4444 6.18056 12.0694 5.55556 12.8333 5.55556C13.5972 5.55556 14.2222 6.18056 14.2222 6.94444C14.2222 7.70833 13.5972 8.33333 12.8333 8.33333Z" fill="#616161"/>
</svg>
