<svg width="45" height="45" viewBox="0 0 45 45" fill="none" xmlns="http://www.w3.org/2000/svg">
<rect width="45" height="45" rx="22.5" fill="#74C6FC"/>
<g clip-path="url(#clip0)">
<path d="M13 17.481H19C19.1326 17.481 19.2598 17.4283 19.3536 17.3346C19.4473 17.2408 19.5 17.1136 19.5 16.981V15.981C19.4998 15.8978 19.4788 15.816 19.439 15.743L16.878 11C16.7845 10.8517 16.6549 10.7295 16.5014 10.6448C16.3478 10.5601 16.1753 10.5157 16 10.5157C15.8247 10.5157 15.6522 10.5601 15.4986 10.6448C15.3451 10.7295 15.2155 10.8517 15.122 11L12.561 15.743C12.5212 15.816 12.5002 15.8978 12.5 15.981V16.981C12.5 17.1136 12.5527 17.2408 12.6464 17.3346C12.7402 17.4283 12.8674 17.481 13 17.481Z" fill="#333333"/>
<path d="M26 17.481H32C32.1326 17.481 32.2598 17.4283 32.3536 17.3346C32.4473 17.2408 32.5 17.1136 32.5 16.981V15.981C32.4998 15.8978 32.4788 15.816 32.439 15.743L29.878 11C29.7845 10.8517 29.6549 10.7295 29.5014 10.6448C29.3478 10.5601 29.1753 10.5157 29 10.5157C28.8247 10.5157 28.6522 10.5601 28.4986 10.6448C28.3451 10.7295 28.2155 10.8517 28.122 11L25.561 15.743C25.5212 15.816 25.5002 15.8978 25.5 15.981V16.981C25.5 17.1136 25.5527 17.2408 25.6464 17.3346C25.7402 17.4283 25.8674 17.481 26 17.481Z" fill="#333333"/>
<path d="M32.5 18.981H25.5C25.2348 18.981 24.9804 19.0864 24.7929 19.2739C24.6054 19.4614 24.5 19.7158 24.5 19.981V21.481C24.5 21.6136 24.4473 21.7408 24.3536 21.8346C24.2598 21.9283 24.1326 21.981 24 21.981H21C20.8674 21.981 20.7402 21.9283 20.6464 21.8346C20.5527 21.7408 20.5 21.6136 20.5 21.481V19.981C20.5 19.7158 20.3946 19.4614 20.2071 19.2739C20.0196 19.0864 19.7652 18.981 19.5 18.981H12.5C12.2348 18.981 11.9804 19.0864 11.7929 19.2739C11.6054 19.4614 11.5 19.7158 11.5 19.981V33.981C11.5 34.1136 11.5527 34.2408 11.6464 34.3346C11.7402 34.4283 11.8674 34.481 12 34.481H20C20.1326 34.481 20.2598 34.4283 20.3536 34.3346C20.4473 34.2408 20.5 34.1136 20.5 33.981V25.481C20.5 25.3484 20.5527 25.2212 20.6464 25.1274C20.7402 25.0337 20.8674 24.981 21 24.981H24C24.1326 24.981 24.2598 25.0337 24.3536 25.1274C24.4473 25.2212 24.5 25.3484 24.5 25.481V33.981C24.5 34.1136 24.5527 34.2408 24.6464 34.3346C24.7402 34.4283 24.8674 34.481 25 34.481H33C33.1326 34.481 33.2598 34.4283 33.3536 34.3346C33.4473 34.2408 33.5 34.1136 33.5 33.981V19.981C33.5 19.7158 33.3946 19.4614 33.2071 19.2739C33.0196 19.0864 32.7652 18.981 32.5 18.981V18.981ZM17.75 30.981H14.25C14.0511 30.981 13.8603 30.902 13.7197 30.7613C13.579 30.6207 13.5 30.4299 13.5 30.231C13.5 30.0321 13.579 29.8413 13.7197 29.7007C13.8603 29.56 14.0511 29.481 14.25 29.481H17.75C17.9489 29.481 18.1397 29.56 18.2803 29.7007C18.421 29.8413 18.5 30.0321 18.5 30.231C18.5 30.4299 18.421 30.6207 18.2803 30.7613C18.1397 30.902 17.9489 30.981 17.75 30.981ZM17.75 26.981H14.25C14.0511 26.981 13.8603 26.902 13.7197 26.7613C13.579 26.6207 13.5 26.4299 13.5 26.231C13.5 26.0321 13.579 25.8413 13.7197 25.7007C13.8603 25.56 14.0511 25.481 14.25 25.481H17.75C17.9489 25.481 18.1397 25.56 18.2803 25.7007C18.421 25.8413 18.5 26.0321 18.5 26.231C18.5 26.4299 18.421 26.6207 18.2803 26.7613C18.1397 26.902 17.9489 26.981 17.75 26.981ZM17.75 22.981H14.25C14.0511 22.981 13.8603 22.902 13.7197 22.7613C13.579 22.6207 13.5 22.4299 13.5 22.231C13.5 22.0321 13.579 21.8413 13.7197 21.7007C13.8603 21.56 14.0511 21.481 14.25 21.481H17.75C17.9489 21.481 18.1397 21.56 18.2803 21.7007C18.421 21.8413 18.5 22.0321 18.5 22.231C18.5 22.4299 18.421 22.6207 18.2803 22.7613C18.1397 22.902 17.9489 22.981 17.75 22.981ZM30.75 30.981H27.25C27.0511 30.981 26.8603 30.902 26.7197 30.7613C26.579 30.6207 26.5 30.4299 26.5 30.231C26.5 30.0321 26.579 29.8413 26.7197 29.7007C26.8603 29.56 27.0511 29.481 27.25 29.481H30.75C30.9489 29.481 31.1397 29.56 31.2803 29.7007C31.421 29.8413 31.5 30.0321 31.5 30.231C31.5 30.4299 31.421 30.6207 31.2803 30.7613C31.1397 30.902 30.9489 30.981 30.75 30.981ZM30.75 26.981H27.25C27.0511 26.981 26.8603 26.902 26.7197 26.7613C26.579 26.6207 26.5 26.4299 26.5 26.231C26.5 26.0321 26.579 25.8413 26.7197 25.7007C26.8603 25.56 27.0511 25.481 27.25 25.481H30.75C30.9489 25.481 31.1397 25.56 31.2803 25.7007C31.421 25.8413 31.5 26.0321 31.5 26.231C31.5 26.4299 31.421 26.6207 31.2803 26.7613C31.1397 26.902 30.9489 26.981 30.75 26.981ZM30.75 22.981H27.25C27.0511 22.981 26.8603 22.902 26.7197 22.7613C26.579 22.6207 26.5 22.4299 26.5 22.231C26.5 22.0321 26.579 21.8413 26.7197 21.7007C26.8603 21.56 27.0511 21.481 27.25 21.481H30.75C30.9489 21.481 31.1397 21.56 31.2803 21.7007C31.421 21.8413 31.5 22.0321 31.5 22.231C31.5 22.4299 31.421 22.6207 31.2803 22.7613C31.1397 22.902 30.9489 22.981 30.75 22.981Z" fill="#333333"/>
</g>
<defs>
<clipPath id="clip0">
<rect width="24" height="24" fill="white" transform="translate(10.5 10.5)"/>
</clipPath>
</defs>
</svg>
