<svg width="25" height="25" viewBox="0 0 25 25" fill="none" xmlns="http://www.w3.org/2000/svg">
<path d="M4.6875 0H6.25V4.6875H4.6875V0Z" fill="#616161"/>
<path d="M17.1875 0H18.75V4.6875H17.1875V0Z" fill="#616161"/>
<path d="M10.3125 21.875H1.5625V9.375H21.875V10.3125C22.5 10.625 22.9687 10.9375 23.4375 11.4063V1.5625H20.3125V6.25H15.625V1.5625H7.8125V6.25H3.125V1.5625H0V23.4375H11.4063C10.9375 22.9687 10.625 22.5 10.3125 21.875Z" fill="#616161"/>
<path d="M21.875 18.75H17.1875V14.0625H18.75V17.1875H21.875V18.75Z" fill="#616161"/>
<path d="M17.9688 12.5C20.9375 12.5 23.4375 15 23.4375 17.9688C23.4375 20.9375 20.9375 23.4375 17.9688 23.4375C15 23.4375 12.5 20.9375 12.5 17.9688C12.5 15 15 12.5 17.9688 12.5ZM17.9688 10.9375C14.0625 10.9375 10.9375 14.0625 10.9375 17.9688C10.9375 21.875 14.0625 25 17.9688 25C21.875 25 25 21.875 25 17.9688C25 14.0625 21.875 10.9375 17.9688 10.9375Z" fill="#616161"/>
</svg>
