<svg width="46" height="45" viewBox="0 0 46 45" fill="none" xmlns="http://www.w3.org/2000/svg">
<rect x="0.5" width="45" height="45" rx="22.5" fill="#74C6FC"/>
<g clip-path="url(#clip0)">
<path d="M17.976 28.923C18.5069 28.796 18.9659 28.4642 19.253 28C20.2796 28.973 21.5947 29.5858 23 29.746C24.5163 29.5631 25.924 28.8656 26.988 27.77C27.1233 28.0579 27.3223 28.3112 27.5698 28.511C27.8174 28.7107 28.1071 28.8516 28.417 28.923C30.105 29.328 31.983 28.036 32.586 27.289C32.6368 27.2261 32.6717 27.1518 32.6875 27.0725C32.7033 26.9932 32.6996 26.9113 32.6768 26.8337C32.654 26.7561 32.6127 26.6852 32.5565 26.6271C32.5003 26.569 32.4308 26.5254 32.354 26.5C31.028 26.059 30.387 24.432 30.077 23.072C30.1817 22.7699 30.2398 22.4536 30.249 22.134C30.27 21.8355 30.2243 21.536 30.1151 21.2574C30.006 20.9787 29.8362 20.7279 29.618 20.523L29.553 20.323C29.5927 20.2604 29.618 20.1896 29.627 20.116C29.883 17.816 30.497 12.051 30.497 12.051C30.5069 11.9578 30.4905 11.8637 30.4494 11.7794C30.4084 11.6951 30.3446 11.6241 30.2651 11.5743C30.1857 11.5246 30.0939 11.4982 30.0001 11.4981C29.9064 11.4981 29.8145 11.5244 29.735 11.574L26.282 13.73C26.2313 13.7615 26.171 13.7738 26.112 13.7648C26.053 13.7558 25.9991 13.7261 25.96 13.681L23.38 10.671C23.3316 10.6185 23.2729 10.5766 23.2075 10.548C23.1421 10.5194 23.0714 10.5046 23 10.5046C22.9286 10.5046 22.858 10.5194 22.7926 10.548C22.7272 10.5766 22.6684 10.6185 22.62 10.671L20.04 13.681C20.0009 13.7261 19.9471 13.7558 19.8881 13.7648C19.829 13.7738 19.7688 13.7615 19.718 13.73L16.265 11.572C16.1853 11.5221 16.0931 11.4958 15.9991 11.4959C15.905 11.4961 15.8129 11.5227 15.7334 11.5728C15.6538 11.623 15.59 11.6945 15.5492 11.7793C15.5085 11.864 15.4925 11.9586 15.503 12.052L16.416 20.1C16.4258 20.1518 16.4437 20.2018 16.469 20.248L16.382 20.52C16.1639 20.7249 15.9941 20.9757 15.8849 21.2544C15.7758 21.533 15.73 21.8325 15.751 22.131C15.7649 22.6537 15.9104 23.1645 16.174 23.616C15.823 24.836 15.189 26.116 14.038 26.497C13.9615 26.5226 13.8923 26.5662 13.8363 26.6243C13.7803 26.6824 13.7392 26.7532 13.7165 26.8306C13.6938 26.908 13.6902 26.9898 13.706 27.0689C13.7217 27.1481 13.7564 27.2222 13.807 27.285C14.392 28.014 16.286 29.329 17.976 28.923V28.923ZM23 28.246C21.971 28.246 19.184 26.756 18.809 24.508C18.7621 24.225 18.6464 23.9579 18.472 23.7302C18.2977 23.5025 18.07 23.3211 17.809 23.202C17.6311 23.0803 17.4868 22.9157 17.3895 22.7234C17.2921 22.5311 17.2448 22.3174 17.252 22.102C17.2303 21.948 17.2659 21.7914 17.352 21.662C17.4414 21.6176 17.5209 21.5557 17.5858 21.4799C17.6508 21.4042 17.6998 21.3161 17.73 21.221L18.036 20.268C18.048 20.2308 18.0685 20.197 18.0959 20.1692C18.1234 20.1414 18.157 20.1204 18.194 20.108C21.3073 19.0449 24.6849 19.0421 27.8 20.1C27.8372 20.1125 27.8708 20.1336 27.8983 20.1616C27.9258 20.1896 27.9462 20.2236 27.958 20.261L28.267 21.222C28.2972 21.3171 28.3463 21.4052 28.4112 21.4809C28.4761 21.5567 28.5557 21.6186 28.645 21.663C28.7312 21.7924 28.7668 21.949 28.745 22.103C28.7522 22.3184 28.7049 22.5321 28.6076 22.7244C28.5102 22.9167 28.3659 23.0813 28.188 23.203C27.9278 23.3215 27.7006 23.502 27.5263 23.7286C27.352 23.9552 27.2358 24.2211 27.188 24.503C26.816 26.756 24.029 28.246 23 28.246V28.246Z" fill="#333333"/>
<path d="M23.741 24.824C23.4846 24.9412 23.2059 25.0018 22.924 25.0018C22.6421 25.0018 22.3634 24.9412 22.107 24.824C21.9318 24.7297 21.7264 24.7089 21.5358 24.7661C21.3453 24.8233 21.1853 24.9538 21.091 25.129C20.9967 25.3042 20.9759 25.5096 21.0331 25.7002C21.0903 25.8907 21.2208 26.0507 21.396 26.145C21.8714 26.3814 22.3951 26.5045 22.926 26.5045C23.4569 26.5045 23.9806 26.3814 24.456 26.145C24.5453 26.0996 24.6247 26.0368 24.6893 25.9603C24.754 25.8837 24.8026 25.795 24.8324 25.6993C24.8622 25.6036 24.8726 25.503 24.8628 25.4032C24.853 25.3035 24.8234 25.2068 24.7756 25.1187C24.7278 25.0306 24.6629 24.953 24.5846 24.8904C24.5063 24.8279 24.4163 24.7816 24.3199 24.7545C24.2234 24.7273 24.1225 24.7197 24.0231 24.7321C23.9237 24.7446 23.8277 24.7769 23.741 24.827V24.824Z" fill="#333333"/>
<path d="M21.992 22.522C22.1248 22.3741 22.1937 22.1797 22.1833 21.9811C22.173 21.7826 22.0844 21.5963 21.937 21.463C21.5637 21.1623 21.0988 20.9983 20.6195 20.9983C20.1402 20.9983 19.6753 21.1623 19.302 21.463C19.2216 21.5265 19.155 21.6058 19.1064 21.6961C19.0578 21.7863 19.0282 21.8855 19.0194 21.9876C19.0107 22.0898 19.0229 22.1926 19.0555 22.2898C19.088 22.387 19.1401 22.4764 19.2086 22.5527C19.277 22.629 19.3604 22.6904 19.4535 22.7332C19.5467 22.776 19.6476 22.7992 19.75 22.8015C19.8525 22.8038 19.9543 22.785 20.0493 22.7464C20.1442 22.7078 20.2302 22.6502 20.302 22.577C20.3976 22.5229 20.5056 22.4945 20.6155 22.4945C20.7254 22.4945 20.8334 22.5229 20.929 22.577C21.0022 22.6436 21.0879 22.6951 21.181 22.7284C21.2742 22.7618 21.3731 22.7763 21.472 22.7712C21.5708 22.7661 21.6677 22.7414 21.7569 22.6987C21.8462 22.6559 21.9261 22.5958 21.992 22.522V22.522Z" fill="#333333"/>
<path d="M23.867 21.463C23.7334 21.5991 23.6567 21.781 23.6525 21.9716C23.6483 22.1623 23.7168 22.3474 23.8442 22.4893C23.9716 22.6312 24.1482 22.7193 24.3382 22.7356C24.5282 22.7519 24.7173 22.6952 24.867 22.577C24.9626 22.5229 25.0706 22.4945 25.1805 22.4945C25.2904 22.4945 25.3984 22.5229 25.494 22.577C25.5658 22.6501 25.6518 22.7078 25.7467 22.7464C25.8417 22.785 25.9435 22.8038 26.046 22.8015C26.1484 22.7992 26.2494 22.776 26.3425 22.7332C26.4356 22.6904 26.519 22.629 26.5874 22.5527C26.6559 22.4764 26.708 22.3869 26.7405 22.2898C26.7731 22.1926 26.7853 22.0897 26.7766 21.9876C26.7678 21.8855 26.7382 21.7863 26.6896 21.696C26.641 21.6058 26.5745 21.5265 26.494 21.463C26.1214 21.1643 25.6581 21.0015 25.1805 21.0015C24.7029 21.0015 24.2396 21.1643 23.867 21.463V21.463Z" fill="#333333"/>
<path d="M34.2 34.5C34.2819 34.5 34.3625 34.4798 34.4348 34.4413C34.5071 34.4028 34.5688 34.3471 34.6145 34.2792C34.6602 34.2112 34.6886 34.1331 34.697 34.0516C34.7055 33.9702 34.6938 33.8879 34.663 33.812C34.4308 33.2358 34.0818 32.7138 33.6379 32.2791C33.1941 31.8443 32.665 31.5062 32.084 31.286L32.03 31.27L27.03 30.008C26.9568 29.9895 26.8804 29.9878 26.8064 30.003C26.7325 30.0183 26.6629 30.0501 26.603 30.096L23.151 32.752C23.1078 32.7846 23.0551 32.8023 23.001 32.8023C22.9469 32.8023 22.8942 32.7846 22.851 32.752L19.39 30.088C19.3301 30.0417 19.2604 30.0097 19.1863 29.9943C19.1121 29.9788 19.0354 29.9805 18.962 29.999L13.92 31.282C13.339 31.5022 12.81 31.8403 12.3661 32.2751C11.9222 32.7098 11.5732 33.2318 11.341 33.808C11.3095 33.8838 11.2971 33.9661 11.305 34.0478C11.3128 34.1295 11.3406 34.208 11.386 34.2764C11.4314 34.3448 11.4929 34.401 11.5651 34.44C11.6373 34.479 11.7179 34.4996 11.8 34.5H34.2Z" fill="#333333"/>
</g>
<defs>
<clipPath id="clip0">
<rect width="24" height="24" fill="white" transform="translate(11 10.5)"/>
</clipPath>
</defs>
</svg>
