<svg width="25" height="25" viewBox="0 0 25 25" fill="none" xmlns="http://www.w3.org/2000/svg">
<path d="M12.5002 11.9791C11.8095 11.9791 11.1471 11.7048 10.6587 11.2164C10.1704 10.728 9.896 10.0656 9.896 9.37498C9.896 8.68431 10.1704 8.02193 10.6587 7.53356C11.1471 7.04518 11.8095 6.77081 12.5002 6.77081C13.1908 6.77081 13.8532 7.04518 14.3416 7.53356C14.83 8.02193 15.1043 8.68431 15.1043 9.37498C15.1043 9.71696 15.037 10.0556 14.9061 10.3716C14.7752 10.6875 14.5834 10.9746 14.3416 11.2164C14.0998 11.4582 13.8127 11.65 13.4967 11.7809C13.1808 11.9118 12.8421 11.9791 12.5002 11.9791V11.9791ZM12.5002 2.08331C10.5663 2.08331 8.71163 2.85154 7.34418 4.21899C5.97672 5.58645 5.2085 7.44111 5.2085 9.37498C5.2085 14.8437 12.5002 22.9166 12.5002 22.9166C12.5002 22.9166 19.7918 14.8437 19.7918 9.37498C19.7918 7.44111 19.0236 5.58645 17.6561 4.21899C16.2887 2.85154 14.434 2.08331 12.5002 2.08331V2.08331Z" fill="#616161"/>
</svg>
